<?xml version="1.0" encoding="UTF-8"?>
<svg width="36px" height="36px" viewBox="0 0 36 36" version="1.1" xmlns="http://www.w3.org/2000/svg" xmlns:xlink="http://www.w3.org/1999/xlink">
    <!-- Generator: Sketch 52.2 (67145) - http://www.bohemiancoding.com/sketch -->
    <title>Facebook</title>
    <desc>Created with Sketch.</desc>
    <g id="Page-1" stroke="none" stroke-width="1" fill="none" fill-rule="evenodd">
        <g id="ZamanTuneli_Desktop_TR" transform="translate(-162.000000, -653.000000)" fill-rule="nonzero">
            <g id="Group" transform="translate(0.000000, 618.000000)">
                <g id="Facebook" transform="translate(163.000000, 36.000000)">
                    <circle id="facebook-back" stroke="#FFFFFF" cx="17" cy="17" r="17"></circle>
                    <path d="M24.11696,9 L9.88315429,9 C9.39531429,9 9,9.3952 9,9.88315429 L9,24.11696 C9,24.6046857 9.39531429,25 9.88315429,25 L17.5459886,25 L17.5459886,18.8040229 L15.4609371,18.8040229 L15.4609371,16.3891657 L17.5459886,16.3891657 L17.5459886,14.60848 C17.5459886,12.5418514 18.8082514,11.4165257 20.652,11.4165257 C21.5348114,11.4165257 22.29376,11.4822629 22.5149486,11.5117257 L22.5149486,13.6714286 L21.2366171,13.6719771 C20.2337143,13.6719771 20.0397257,14.1484343 20.0397257,14.8475429 L20.0397257,16.3891657 L22.4308114,16.3891657 L22.1194286,18.8040229 L20.0397257,18.8040229 L20.0397257,25 L24.11696,25 C24.6046857,25 25,24.6046857 25,24.11696 L25,9.88315429 C25,9.3952 24.6046857,9 24.11696,9 Z" id="facebook-facebook" fill="#FFFFFF"></path>
                </g>
            </g>
        </g>
    </g>
</svg>