<?xml version="1.0" encoding="UTF-8"?>
<svg width="135px" height="40px" viewBox="0 0 135 40" version="1.1" xmlns="http://www.w3.org/2000/svg" xmlns:xlink="http://www.w3.org/1999/xlink">
    <!-- Generator: Sketch 40.3 (33839) - http://www.bohemiancoding.com/sketch -->
    <title>icon-appstore</title>
    <desc>Created with Sketch.</desc>
    <defs></defs>
    <g id="Page-1" stroke="none" stroke-width="1" fill="none" fill-rule="evenodd">
        <g id="icon-appstore" transform="translate(12.000000, 6.000000)" fill="#FFFFFF">
            <path d="M18.128,13.784 C18.099,10.561 20.767,8.993 20.889,8.92 C19.378,6.717 17.036,6.416 16.213,6.392 C14.246,6.185 12.338,7.569 11.336,7.569 C10.314,7.569 8.771,6.412 7.108,6.446 C4.968,6.479 2.966,7.718 1.868,9.642 C-0.398,13.565 1.292,19.33 3.463,22.501 C4.549,24.054 5.818,25.788 7.479,25.727 C9.104,25.66 9.711,24.691 11.672,24.691 C13.615,24.691 14.185,25.727 15.879,25.688 C17.623,25.66 18.721,24.128 19.769,22.561 C21.024,20.781 21.528,19.028 21.548,18.938 C21.507,18.924 18.161,17.647 18.128,13.784 L18.128,13.784 Z" id="Shape"></path>
            <path d="M14.928,4.306 C15.802,3.213 16.4,1.726 16.234,0.217 C14.969,0.273 13.387,1.092 12.476,2.161 C11.67,3.103 10.95,4.647 11.136,6.099 C12.557,6.205 14.016,5.382 14.928,4.306 L14.928,4.306 Z" id="Shape"></path>
            <path d="M38.644,12.893 L37.068,12.893 L36.205,10.18 L33.205,10.18 L32.383,12.893 L30.848,12.893 L33.821,3.66 L35.656,3.66 L38.644,12.893 L38.644,12.893 Z M35.945,9.043 L35.164,6.632 C35.082,6.385 34.927,5.806 34.698,4.892 L34.671,4.892 C34.58,5.285 34.434,5.865 34.233,6.632 L33.466,9.043 L35.945,9.043 L35.945,9.043 Z" id="Shape"></path>
            <path d="M46.152,9.482 C46.152,10.615 45.846,11.509 45.234,12.167 C44.686,12.752 44.005,13.044 43.192,13.044 C42.316,13.044 41.685,12.73 41.301,12.099 L41.274,12.099 L41.274,15.606 L39.795,15.606 L39.795,8.428 C39.795,7.715 39.776,6.985 39.74,6.236 L41.041,6.236 L41.124,7.291 L41.151,7.291 C41.644,6.497 42.393,6.1 43.398,6.1 C44.184,6.1 44.838,6.411 45.364,7.032 C45.89,7.653 46.152,8.468 46.152,9.482 L46.152,9.482 Z M44.645,9.537 C44.645,8.889 44.499,8.354 44.207,7.934 C43.887,7.496 43.458,7.276 42.919,7.276 C42.554,7.276 42.222,7.397 41.926,7.639 C41.629,7.881 41.435,8.199 41.343,8.591 C41.298,8.774 41.275,8.924 41.275,9.043 L41.275,10.152 C41.275,10.636 41.423,11.046 41.72,11.379 C42.017,11.712 42.403,11.879 42.878,11.879 C43.435,11.879 43.869,11.664 44.179,11.235 C44.489,10.806 44.645,10.24 44.645,9.537 L44.645,9.537 Z" id="Shape"></path>
            <path d="M53.878,9.482 C53.878,10.615 53.572,11.509 52.96,12.167 C52.412,12.752 51.731,13.044 50.918,13.044 C50.042,13.044 49.411,12.73 49.027,12.099 L49,12.099 L49,15.606 L47.521,15.606 L47.521,8.428 C47.521,7.715 47.502,6.985 47.466,6.236 L48.767,6.236 L48.85,7.291 L48.877,7.291 C49.37,6.497 50.119,6.1 51.124,6.1 C51.91,6.1 52.564,6.411 53.09,7.032 C53.616,7.653 53.878,8.468 53.878,9.482 L53.878,9.482 Z M52.371,9.537 C52.371,8.889 52.225,8.354 51.933,7.934 C51.613,7.496 51.184,7.276 50.645,7.276 C50.28,7.276 49.948,7.397 49.652,7.639 C49.355,7.881 49.161,8.199 49.069,8.591 C49.024,8.774 49.001,8.924 49.001,9.043 L49.001,10.152 C49.001,10.636 49.149,11.046 49.446,11.379 C49.743,11.712 50.129,11.879 50.604,11.879 C51.161,11.879 51.595,11.664 51.905,11.235 C52.216,10.806 52.371,10.24 52.371,9.537 L52.371,9.537 Z" id="Shape"></path>
            <path d="M63.879,10.304 C63.879,11.089 63.606,11.729 63.059,12.222 C62.457,12.761 61.62,13.03 60.544,13.03 C59.551,13.03 58.753,12.839 58.15,12.455 L58.493,11.222 C59.141,11.616 59.854,11.812 60.631,11.812 C61.189,11.812 61.623,11.686 61.934,11.434 C62.245,11.183 62.4,10.846 62.4,10.425 C62.4,10.05 62.272,9.735 62.016,9.479 C61.76,9.223 61.335,8.985 60.743,8.765 C59.126,8.161 58.317,7.279 58.317,6.117 C58.317,5.358 58.6,4.736 59.167,4.251 C59.733,3.767 60.487,3.523 61.428,3.523 C62.268,3.523 62.967,3.669 63.524,3.961 L63.155,5.167 C62.634,4.884 62.045,4.742 61.387,4.742 C60.866,4.742 60.46,4.87 60.167,5.126 C59.921,5.355 59.798,5.633 59.798,5.961 C59.798,6.327 59.939,6.628 60.223,6.865 C60.469,7.085 60.916,7.322 61.565,7.578 C62.36,7.897 62.944,8.272 63.319,8.701 C63.691,9.13 63.879,9.665 63.879,10.304 L63.879,10.304 Z" id="Shape"></path>
            <path d="M68.674,7.344 L67.044,7.344 L67.044,10.577 C67.044,11.399 67.331,11.81 67.906,11.81 C68.172,11.81 68.39,11.787 68.564,11.742 L68.605,12.865 C68.312,12.974 67.929,13.029 67.454,13.029 C66.87,13.029 66.413,12.851 66.085,12.495 C65.756,12.139 65.592,11.541 65.592,10.7 L65.592,7.344 L64.618,7.344 L64.618,6.235 L65.592,6.235 L65.592,5.015 L67.044,4.577 L67.044,6.234 L68.674,6.234 L68.674,7.344 L68.674,7.344 Z" id="Shape"></path>
            <path d="M75.963,9.509 C75.963,10.531 75.67,11.372 75.086,12.03 C74.474,12.706 73.661,13.044 72.648,13.044 C71.67,13.044 70.892,12.72 70.312,12.071 C69.732,11.422 69.442,10.605 69.442,9.619 C69.442,8.587 69.741,7.742 70.339,7.085 C70.937,6.427 71.743,6.099 72.757,6.099 C73.735,6.099 74.52,6.423 75.113,7.072 C75.68,7.701 75.963,8.514 75.963,9.509 L75.963,9.509 Z M74.429,9.557 C74.429,8.944 74.296,8.416 74.032,7.977 C73.721,7.446 73.278,7.18 72.703,7.18 C72.109,7.18 71.657,7.446 71.347,7.977 C71.082,8.416 70.95,8.953 70.95,9.584 C70.95,10.198 71.083,10.725 71.347,11.164 C71.666,11.695 72.115,11.961 72.69,11.961 C73.256,11.961 73.699,11.69 74.019,11.15 C74.291,10.702 74.429,10.17 74.429,9.557 L74.429,9.557 Z" id="Shape"></path>
            <path d="M80.895,7.537 C80.749,7.51 80.594,7.496 80.429,7.496 C79.908,7.496 79.507,7.692 79.224,8.085 C78.977,8.432 78.854,8.87 78.854,9.4 L78.854,12.893 L77.375,12.893 L77.389,8.331 C77.389,7.564 77.37,6.865 77.334,6.235 L78.622,6.235 L78.677,7.509 L78.718,7.509 C78.873,7.071 79.119,6.719 79.457,6.453 C79.786,6.216 80.143,6.098 80.526,6.098 C80.663,6.098 80.786,6.107 80.895,6.125 L80.895,7.537 L80.895,7.537 Z" id="Shape"></path>
            <path d="M87.415,9.249 C87.415,9.515 87.397,9.738 87.36,9.921 L82.922,9.921 C82.941,10.578 83.155,11.081 83.566,11.428 C83.941,11.739 84.424,11.894 85.018,11.894 C85.676,11.894 86.274,11.789 86.813,11.579 L87.046,12.606 C86.415,12.88 85.671,13.017 84.813,13.017 C83.781,13.017 82.97,12.713 82.381,12.106 C81.792,11.499 81.497,10.684 81.497,9.661 C81.497,8.656 81.771,7.821 82.319,7.154 C82.894,6.441 83.671,6.086 84.648,6.086 C85.607,6.086 86.333,6.441 86.826,7.154 C87.219,7.719 87.415,8.417 87.415,9.249 L87.415,9.249 Z M86.005,8.866 C86.014,8.428 85.918,8.049 85.717,7.728 C85.461,7.317 85.069,7.112 84.538,7.112 C84.055,7.112 83.662,7.313 83.36,7.715 C83.113,8.035 82.967,8.418 82.922,8.866 L86.005,8.866 L86.005,8.866 Z" id="Shape"></path>
            <path d="M90.319,3.413 C89.925,4.792 89.461,5.925 88.922,6.81 L88.004,6.906 C88.405,5.81 88.693,4.692 88.867,3.55 L90.319,3.413 L90.319,3.413 Z" id="Shape"></path>
            <path d="M96.347,12.893 L95.033,12.893 L94.964,11.825 L94.923,11.825 C94.503,12.637 93.791,13.044 92.786,13.044 C91.982,13.044 91.315,12.73 90.786,12.099 C90.256,11.469 89.991,10.652 89.991,9.647 C89.991,8.57 90.279,7.697 90.854,7.031 C91.411,6.41 92.096,6.099 92.909,6.099 C93.805,6.099 94.43,6.4 94.786,7.003 L94.813,7.003 L94.813,3.18 L96.292,3.18 L96.292,11.098 C96.292,11.747 96.311,12.345 96.347,12.893 L96.347,12.893 Z M94.812,10.084 L94.812,8.975 C94.812,8.783 94.798,8.627 94.771,8.509 C94.688,8.153 94.509,7.854 94.235,7.612 C93.96,7.37 93.63,7.249 93.244,7.249 C92.694,7.249 92.261,7.469 91.944,7.907 C91.628,8.345 91.469,8.907 91.469,9.592 C91.469,10.249 91.62,10.784 91.923,11.195 C92.244,11.633 92.675,11.853 93.216,11.853 C93.702,11.853 94.092,11.67 94.386,11.305 C94.671,10.966 94.812,10.56 94.812,10.084 L94.812,10.084 Z" id="Shape"></path>
            <path d="M103.142,12.893 L101.814,12.893 L101.704,12.125 L101.663,12.125 C101.207,12.737 100.559,13.043 99.718,13.043 C99.088,13.043 98.581,12.843 98.197,12.44 C97.85,12.075 97.676,11.623 97.676,11.084 C97.676,10.272 98.016,9.65 98.697,9.221 C99.378,8.792 100.335,8.582 101.567,8.591 L101.567,8.468 C101.567,7.591 101.107,7.153 100.187,7.153 C99.53,7.153 98.952,7.317 98.451,7.646 L98.149,6.673 C98.769,6.289 99.531,6.098 100.434,6.098 C102.175,6.098 103.046,7.016 103.046,8.852 L103.046,11.304 C103.046,11.97 103.078,12.5 103.142,12.893 L103.142,12.893 Z M101.607,10.605 L101.607,9.578 C99.972,9.551 99.155,9.998 99.155,10.921 C99.155,11.268 99.251,11.528 99.441,11.701 C99.631,11.875 99.873,11.962 100.163,11.962 C100.49,11.962 100.792,11.859 101.069,11.653 C101.346,11.448 101.516,11.185 101.58,10.866 C101.599,10.792 101.607,10.706 101.607,10.605 L101.607,10.605 Z" id="Shape"></path>
            <path d="M110.649,12.893 L109.17,12.893 L109.17,9.081 C109.17,7.905 108.723,7.317 107.827,7.317 C107.389,7.317 107.033,7.479 106.759,7.802 C106.485,8.125 106.348,8.506 106.348,8.944 L106.348,12.893 L104.869,12.893 L104.869,8.139 C104.869,7.555 104.85,6.919 104.814,6.235 L106.116,6.235 L106.184,7.276 L106.225,7.276 C106.398,6.953 106.654,6.684 106.992,6.472 C107.394,6.223 107.842,6.098 108.335,6.098 C108.956,6.098 109.473,6.299 109.883,6.701 C110.395,7.194 110.651,7.93 110.651,8.907 L110.651,12.893 L110.649,12.893 Z" id="Shape"></path>
            <path d="M33.137,17.253 C33.137,17.408 33.086,17.537 32.987,17.641 C32.886,17.745 32.758,17.796 32.604,17.796 C32.455,17.796 32.331,17.742 32.23,17.637 C32.129,17.53 32.08,17.403 32.08,17.253 C32.08,17.105 32.132,16.977 32.235,16.869 C32.339,16.764 32.464,16.71 32.613,16.71 C32.768,16.71 32.895,16.764 32.992,16.869 C33.088,16.977 33.137,17.104 33.137,17.253 L33.137,17.253 Z M33.127,24.761 L32.08,24.761 L32.08,18.223 L33.128,18.223 L33.128,24.761 L33.127,24.761 Z" id="Shape"></path>
            <path d="M39.122,24.761 L38.074,24.761 L38.074,22.061 C38.074,21.229 37.758,20.813 37.124,20.813 C36.813,20.813 36.562,20.928 36.367,21.157 C36.174,21.386 36.076,21.655 36.076,21.966 L36.076,24.762 L35.028,24.762 L35.028,21.396 C35.028,20.982 35.015,20.533 34.99,20.048 L35.911,20.048 L35.96,20.784 L35.989,20.784 C36.111,20.555 36.293,20.366 36.532,20.216 C36.816,20.039 37.134,19.95 37.482,19.95 C37.922,19.95 38.288,20.093 38.579,20.378 C38.941,20.727 39.122,21.247 39.122,21.939 L39.122,24.761 L39.122,24.761 Z" id="Shape"></path>
            <path d="M45.155,24.761 L44.224,24.761 L44.175,24.004 L44.146,24.004 C43.849,24.58 43.344,24.867 42.633,24.867 C42.064,24.867 41.592,24.644 41.217,24.198 C40.842,23.752 40.655,23.174 40.655,22.462 C40.655,21.699 40.858,21.081 41.265,20.609 C41.66,20.17 42.145,19.949 42.72,19.949 C43.354,19.949 43.797,20.163 44.049,20.59 L44.069,20.59 L44.069,17.883 L45.117,17.883 L45.117,23.49 C45.117,23.949 45.129,24.373 45.155,24.761 L45.155,24.761 Z M44.069,22.772 L44.069,21.986 C44.069,21.85 44.059,21.74 44.04,21.656 C43.981,21.404 43.854,21.193 43.66,21.021 C43.465,20.849 43.231,20.763 42.959,20.763 C42.569,20.763 42.263,20.919 42.038,21.23 C41.814,21.541 41.702,21.937 41.702,22.422 C41.702,22.888 41.809,23.267 42.024,23.558 C42.251,23.868 42.556,24.023 42.939,24.023 C43.283,24.023 43.559,23.894 43.767,23.635 C43.968,23.396 44.069,23.108 44.069,22.772 L44.069,22.772 Z" id="Shape"></path>
            <path d="M48.143,18.641 C48.143,18.829 48.081,18.98 47.959,19.096 C47.836,19.213 47.678,19.271 47.483,19.271 C47.308,19.271 47.161,19.211 47.042,19.092 C46.922,18.972 46.862,18.821 46.862,18.641 C46.862,18.459 46.924,18.311 47.047,18.194 C47.17,18.079 47.321,18.02 47.503,18.02 C47.684,18.02 47.836,18.079 47.959,18.194 C48.082,18.311 48.143,18.459 48.143,18.641 L48.143,18.641 Z M48.027,24.761 L46.979,24.761 L46.979,20.047 L48.027,20.047 L48.027,24.761 L48.027,24.761 Z" id="Shape"></path>
            <path d="M52.381,20.969 C52.277,20.949 52.168,20.94 52.051,20.94 C51.683,20.94 51.399,21.079 51.197,21.356 C51.023,21.602 50.935,21.913 50.935,22.288 L50.935,24.762 L49.887,24.762 L49.897,21.533 C49.897,20.989 49.884,20.494 49.859,20.049 L50.77,20.049 L50.809,20.951 L50.838,20.951 C50.947,20.64 51.122,20.39 51.361,20.203 C51.594,20.035 51.846,19.951 52.118,19.951 C52.215,19.951 52.303,19.958 52.38,19.971 L52.38,20.969 L52.381,20.969 Z" id="Shape"></path>
            <path d="M54.883,18.641 C54.883,18.829 54.821,18.98 54.699,19.096 C54.576,19.213 54.418,19.271 54.223,19.271 C54.048,19.271 53.901,19.211 53.782,19.092 C53.662,18.972 53.602,18.821 53.602,18.641 C53.602,18.459 53.664,18.311 53.787,18.194 C53.91,18.079 54.061,18.02 54.243,18.02 C54.424,18.02 54.576,18.079 54.699,18.194 C54.822,18.311 54.883,18.459 54.883,18.641 L54.883,18.641 Z M54.767,24.761 L53.719,24.761 L53.719,20.047 L54.767,20.047 L54.767,24.761 L54.767,24.761 Z" id="Shape"></path>
            <path d="M60.723,24.761 L59.674,24.761 L59.674,22.061 C59.674,21.229 59.358,20.813 58.725,20.813 C58.414,20.813 58.163,20.928 57.967,21.157 C57.774,21.386 57.676,21.655 57.676,21.966 L57.676,24.762 L56.629,24.762 L56.629,21.396 C56.629,20.982 56.616,20.533 56.591,20.048 L57.512,20.048 L57.561,20.784 L57.59,20.784 C57.711,20.555 57.893,20.366 58.133,20.216 C58.416,20.039 58.735,19.95 59.082,19.95 C59.523,19.95 59.889,20.093 60.18,20.378 C60.541,20.727 60.723,21.247 60.723,21.939 L60.723,24.761 L60.723,24.761 Z" id="Shape"></path>
        </g>
    </g>
</svg>