<?xml version="1.0" encoding="UTF-8"?>
<svg width="135px" height="40px" viewBox="0 0 135 40" version="1.1" xmlns="http://www.w3.org/2000/svg" xmlns:xlink="http://www.w3.org/1999/xlink">
    <!-- Generator: Sketch 40.3 (33839) - http://www.bohemiancoding.com/sketch -->
    <title>icon-googleplay</title>
    <desc>Created with Sketch.</desc>
    <defs>
        <linearGradient x1="91.5361538%" y1="4.8388%" x2="-37.5592308%" y2="71.9684%" id="linearGradient-1">
            <stop stop-color="#00A0FF" offset="0%"></stop>
            <stop stop-color="#00A1FF" offset="0.657445%"></stop>
            <stop stop-color="#00BEFF" offset="26.01%"></stop>
            <stop stop-color="#00D2FF" offset="51.22%"></stop>
            <stop stop-color="#00DFFF" offset="76.04%"></stop>
            <stop stop-color="#00E3FF" offset="100%"></stop>
        </linearGradient>
        <linearGradient x1="107.728079%" y1="49.4294118%" x2="-130.665025%" y2="49.4294118%" id="linearGradient-2">
            <stop stop-color="#FFE000" offset="0%"></stop>
            <stop stop-color="#FFBD00" offset="40.87%"></stop>
            <stop stop-color="#FFA500" offset="77.54%"></stop>
            <stop stop-color="#FF9C00" offset="100%"></stop>
        </linearGradient>
        <linearGradient x1="86.3892216%" y1="17.8150459%" x2="-49.888024%" y2="194.392791%" id="linearGradient-3">
            <stop stop-color="#FF3A44" offset="0%"></stop>
            <stop stop-color="#C31162" offset="100%"></stop>
        </linearGradient>
        <linearGradient x1="-18.5790419%" y1="-54.5266535%" x2="42.2748503%" y2="24.6901019%" id="linearGradient-4">
            <stop stop-color="#32A071" offset="0%"></stop>
            <stop stop-color="#2DA771" offset="6.85%"></stop>
            <stop stop-color="#15CF74" offset="47.62%"></stop>
            <stop stop-color="#06E775" offset="80.09%"></stop>
            <stop stop-color="#00F076" offset="100%"></stop>
        </linearGradient>
    </defs>
    <g id="Page-1" stroke="none" stroke-width="1" fill="none" fill-rule="evenodd">
        <g id="icon-googleplay" transform="translate(9.000000, 7.000000)">
            <path d="M55.7,5.8 C53.6,5.8 52,7.4 52,9.5 C52,11.6 53.7,13.2 55.7,13.2 C57.8,13.2 59.4,11.6 59.4,9.5 C59.5,7.4 57.8,5.8 55.7,5.8 L55.7,5.8 Z M55.7,11.8 C54.6,11.8 53.6,10.9 53.6,9.5 C53.6,8.2 54.6,7.2 55.7,7.2 C56.8,7.2 57.8,8.1 57.8,9.5 C57.8,10.8 56.9,11.8 55.7,11.8 L55.7,11.8 Z M47.6,5.8 C45.5,5.8 43.9,7.4 43.9,9.5 C43.9,11.6 45.6,13.2 47.6,13.2 C49.6,13.2 51.3,11.6 51.3,9.5 C51.3,7.4 49.6,5.8 47.6,5.8 L47.6,5.8 Z M47.6,11.8 C46.5,11.8 45.5,10.9 45.5,9.5 C45.5,8.2 46.5,7.2 47.6,7.2 C48.7,7.2 49.7,8.1 49.7,9.5 C49.7,10.8 48.7,11.8 47.6,11.8 L47.6,11.8 Z M37.9,6.9 L37.9,8.5 L41.7,8.5 C41.6,9.4 41.3,10 40.8,10.5 C40.3,11 39.4,11.7 37.9,11.7 C35.6,11.7 33.8,9.8 33.8,7.5 C33.8,5.2 35.6,3.3 37.9,3.3 C39.2,3.3 40.1,3.8 40.7,4.4 L41.8,3.3 C40.9,2.4 39.6,1.7 37.8,1.7 C34.6,1.7 31.9,4.3 31.9,7.5 C31.9,10.7 34.6,13.3 37.8,13.3 C39.5,13.3 40.8,12.7 41.8,11.7 C42.8,10.7 43.2,9.2 43.2,8 C43.2,7.6 43.2,7.3 43.1,7 L37.9,7 L37.9,6.9 Z M77.5,8.2 C77.2,7.4 76.2,5.8 74.3,5.8 C72.4,5.8 70.8,7.3 70.8,9.5 C70.8,11.6 72.4,13.2 74.5,13.2 C76.2,13.2 77.2,12.2 77.6,11.6 L76.3,10.8 C75.9,11.4 75.3,11.8 74.5,11.8 C73.7,11.8 73.1,11.4 72.7,10.7 L77.7,8.6 L77.5,8.2 L77.5,8.2 Z M72.4,9.4 C72.4,8 73.5,7.2 74.3,7.2 C74.9,7.2 75.5,7.5 75.7,8 L72.4,9.4 L72.4,9.4 Z M68.4,13 L70,13 L70,2.1 L68.4,2.1 L68.4,13 L68.4,13 Z M65.7,6.6 L65.7,6.6 C65.3,6.2 64.6,5.8 63.7,5.8 C61.8,5.8 60.1,7.4 60.1,9.5 C60.1,11.6 61.8,13.2 63.7,13.2 C64.6,13.2 65.3,12.8 65.7,12.4 L65.8,12.4 L65.8,12.9 C65.8,14.3 65,15.1 63.8,15.1 C62.8,15.1 62.2,14.4 61.9,13.8 L60.5,14.4 C60.9,15.4 62,16.6 63.8,16.6 C65.7,16.6 67.3,15.5 67.3,12.7 L67.3,6 L65.8,6 L65.8,6.6 L65.7,6.6 Z M63.8,11.8 C62.7,11.8 61.7,10.9 61.7,9.6 C61.7,8.3 62.6,7.3 63.8,7.3 C64.9,7.3 65.8,8.3 65.8,9.6 C65.8,10.8 65,11.8 63.8,11.8 L63.8,11.8 Z M85.2,2.1 L81.3,2.1 L81.3,13 L82.9,13 L82.9,8.9 L85.2,8.9 C87,8.9 88.8,7.6 88.8,5.5 C88.8,3.4 87,2.1 85.2,2.1 L85.2,2.1 Z M85.2,7.3 L82.9,7.3 L82.9,3.6 L85.2,3.6 C86.4,3.6 87.1,4.6 87.1,5.5 C87.1,6.3 86.4,7.3 85.2,7.3 L85.2,7.3 Z M95.3,5.8 C94.1,5.8 92.9,6.3 92.4,7.5 L93.8,8.1 C94.1,7.5 94.7,7.3 95.3,7.3 C96.1,7.3 97,7.8 97,8.7 L97,8.8 C96.7,8.6 96.1,8.4 95.3,8.4 C93.7,8.4 92.2,9.3 92.2,10.9 C92.2,12.4 93.5,13.3 94.9,13.3 C96,13.3 96.6,12.8 97,12.2 L97.1,12.2 L97.1,13 L98.7,13 L98.7,8.8 C98.6,6.9 97.1,5.8 95.3,5.8 L95.3,5.8 Z M95.1,11.8 C94.6,11.8 93.8,11.5 93.8,10.9 C93.8,10.1 94.7,9.7 95.5,9.7 C96.2,9.7 96.6,9.9 97,10.1 C96.9,11 96,11.8 95.1,11.8 L95.1,11.8 Z M104.3,6 L102.4,10.7 L102.3,10.7 L100.4,6 L98.6,6 L101.5,12.6 L99.8,16.3 L101.5,16.3 L106,6 L104.3,6 L104.3,6 Z M89.6,13 L91.2,13 L91.2,2.1 L89.6,2.1 L89.6,13 L89.6,13 Z" id="Shape" fill="#FFFFFF"></path>
            <path d="M1.4,0.5 C1.1,0.8 0.9,1.3 0.9,1.9 L0.9,24 C0.9,24.6 1.1,25.1 1.4,25.4 L1.5,25.5 L13.9,13.1 L13.9,13 L13.9,12.9 L1.4,0.5 L1.4,0.5 L1.4,0.5 Z" id="Shape" fill="url(#linearGradient-1)"></path>
            <path d="M18,17.3 L13.9,13.2 L13.9,13 L13.9,12.9 L18,8.8 L18.1,8.9 L23,11.7 C24.4,12.5 24.4,13.8 23,14.6 L18,17.3 L18,17.3 L18,17.3 Z" id="Shape" fill="url(#linearGradient-2)"></path>
            <path d="M18.1,17.2 L13.9,13 L1.4,25.5 C1.9,26 2.6,26 3.5,25.6 L18.1,17.2" id="Shape" fill="url(#linearGradient-3)"></path>
            <path d="M18.1,8.8 L3.5,0.5 C2.6,-2.30926389e-14 1.9,0.1 1.4,0.6 L13.9,13 L18.1,8.8 L18.1,8.8 Z" id="Shape" fill="url(#linearGradient-4)"></path>
            <path d="M18,17.1 L3.5,25.3 C2.7,25.8 2,25.7 1.5,25.3 L1.5,25.3 L1.4,25.4 L1.4,25.4 L1.5,25.5 L1.5,25.5 C2,25.9 2.7,26 3.5,25.5 L18,17.1 L18,17.1 L18,17.1 Z" id="Shape" fill="#000000" opacity="0.2"></path>
            <path d="M1.4,25.3 C1.1,25 1,24.5 1,23.9 L1,24 C1,24.6 1.2,25.1 1.5,25.4 L1.5,25.3 L1.4,25.3 L1.4,25.3 Z" id="Shape" fill="#000000" opacity="0.12"></path>
            <path d="M23,14.3 L18,17.1 L18.1,17.2 L23,14.4 C23.7,14 24,13.5 24,13 L24,13 C24,13.5 23.6,13.9 23,14.3 L23,14.3 Z" id="Shape" fill="#000000" opacity="0.12"></path>
            <path d="M3.5,0.6 L23,11.7 C23.6,12.1 24,12.5 24,13 L24,13 C24,12.5 23.7,12 23,11.6 L3.5,0.5 C2.1,-0.3 1,0.4 1,2 L1,2.1 C1,0.5 2.1,-0.2 3.5,0.6 L3.5,0.6 Z" id="Shape" fill="#FFFFFF" opacity="0.25"></path>
            <polygon id="Shape" stroke="#FFFFFF" stroke-width="0.2" fill="#FFFFFF" points="32.8 21.9 32.1 21.9 32.1 20 32.8 20"></polygon>
            <path d="M34.1,26 L34.1,19.9 L36,19.9 C36.9,19.9 37.7,20.2 38.2,20.7 C38.8,21.3 39,22 39,22.9 C39,23.8 38.7,24.5 38.2,25.1 C37.6,25.7 36.9,25.9 36,25.9 L34.1,25.9 L34.1,26 Z M34.9,25.3 L36,25.3 C36.7,25.3 37.3,25.1 37.7,24.7 C38.1,24.3 38.3,23.7 38.3,23 C38.3,22.3 38.1,21.7 37.7,21.3 C37.3,20.9 36.7,20.7 36,20.7 L34.9,20.7 L34.9,25.3 L34.9,25.3 Z" id="Shape" stroke="#FFFFFF" stroke-width="0.2" fill="#FFFFFF"></path>
            <polygon id="Shape" stroke="#FFFFFF" stroke-width="0.2" fill="#FFFFFF" points="43.7 20.7 40.9 20.7 40.9 22.6 43.4 22.6 43.4 23.3 40.9 23.3 40.9 25.2 43.7 25.2 43.7 26 40.1 26 40.1 19.9 43.7 19.9"></polygon>
            <polygon id="Shape" stroke="#FFFFFF" stroke-width="0.2" fill="#FFFFFF" points="44.8 26 44.8 19.9 45.8 19.9 48.8 24.6 48.8 24.6 48.8 23.4 48.8 19.8 49.6 19.8 49.6 26 48.8 26 45.7 21 45.7 21 45.7 22.2 45.7 26"></polygon>
            <path d="M52.1,26 L54.4,19.9 L55.3,19.9 L57.6,26 L56.7,26 L56.1,24.4 L53.5,24.4 L52.9,26 L52.1,26 L52.1,26 Z M53.8,23.6 L55.8,23.6 L54.8,20.9 L54.8,20.9 L53.8,23.6 L53.8,23.6 Z" id="Shape" stroke="#FFFFFF" stroke-width="0.2" fill="#FFFFFF"></path>
            <polygon id="Shape" stroke="#FFFFFF" stroke-width="0.2" fill="#FFFFFF" points="58.3 26 58.3 19.9 59.1 19.9 59.1 25.2 61.7 25.2 61.7 26"></polygon>
            <polygon id="Shape" stroke="#FFFFFF" stroke-width="0.2" fill="#FFFFFF" points="62.6 26 62.6 19.9 63.4 19.9 63.4 26"></polygon>
            <polygon id="Shape" stroke="#FFFFFF" stroke-width="0.2" fill="#FFFFFF" points="64.8 26 64.8 19.9 65.8 19.9 68.8 24.6 68.8 24.6 68.8 23.4 68.8 19.8 69.6 19.8 69.6 26 68.8 26 65.7 21 65.7 21 65.7 22.2 65.7 26"></polygon>
        </g>
    </g>
</svg>