<?xml version="1.0" encoding="UTF-8"?>
<svg width="36px" height="36px" viewBox="0 0 36 36" version="1.1" xmlns="http://www.w3.org/2000/svg" xmlns:xlink="http://www.w3.org/1999/xlink">
    <!-- Generator: Sketch 52.2 (67145) - http://www.bohemiancoding.com/sketch -->
    <title>Twitter</title>
    <desc>Created with Sketch.</desc>
    <g id="Page-1" stroke="none" stroke-width="1" fill="none" fill-rule="evenodd">
        <g id="ZamanTuneli_Desktop_TR" transform="translate(-103.000000, -653.000000)" fill-rule="nonzero">
            <g id="Group" transform="translate(0.000000, 618.000000)">
                <g id="Twitter" transform="translate(104.000000, 36.000000)">
                    <circle id="twitter-back" stroke="#FFFFFF" cx="17" cy="17" r="17"></circle>
                    <path d="M26,11.7315805 C25.3378786,12.025388 24.6262116,12.2237708 23.8790116,12.313043 C24.6411782,11.8559088 25.2270353,11.1322385 25.502687,10.2698759 C24.7893124,10.693034 23.9989202,11.0005525 23.1577771,11.1660891 C22.4841294,10.4482949 21.5242831,10 20.4621817,10 C18.4223545,10 16.7691226,11.6533574 16.7691226,13.6927075 C16.7691226,13.9823213 16.8018432,14.2641002 16.8647481,14.5343529 C13.7955653,14.3803425 11.0744563,12.9101753 9.25312641,10.6759831 C8.93518658,11.2212596 8.7531013,11.8556828 8.7531013,12.5325197 C8.7531013,13.8135955 9.40505248,14.9438752 10.3959118,15.6061222 C9.79054292,15.5871127 9.22110893,15.4208478 8.72329366,15.1442419 C8.72294209,15.1596856 8.72294209,15.1751293 8.72294209,15.1908242 C8.72294209,16.9800362 9.9959319,18.4725277 11.6853247,18.811913 C11.3753704,18.8962885 11.0490684,18.9414143 10.71237,18.9414143 C10.474386,18.9414143 10.2430064,18.9181106 10.0175029,18.8751946 C10.4874943,20.3421727 11.851238,21.4098991 13.4673045,21.4395811 C12.20338,22.4303149 10.6110944,23.0205916 8.88074431,23.0205916 C8.58266787,23.0205916 8.28886043,23.0031892 8,22.9690874 C9.63434785,24.0169755 11.5753352,24.628095 13.6609161,24.628095 C20.4535935,24.628095 24.1681231,19.0010045 24.1681231,14.120888 C24.1681231,13.9607503 24.1644568,13.8015921 24.1573502,13.6431621 C24.8788107,13.1225453 25.5051228,12.4722013 26,11.7315805 Z" id="twitter-twitter" fill="#FFFFFF"></path>
                </g>
            </g>
        </g>
    </g>
</svg>